<svg width="414" height="70" viewBox="0 0 414 70" fill="none" xmlns="http://www.w3.org/2000/svg">
<rect width="414" height="70" fill="#FFCA41"/>
<circle cx="206.5" cy="35.5" r="28.5" fill="white"/>
<g clip-path="url(#clip0_9_26)">
<path d="M198.978 44.6777C198.764 44.6777 198.622 44.6777 198.408 44.6064L193.061 42.8954C192.634 42.7529 191.707 42.2538 192.135 40.8281L194.844 32.3447L203.042 34.9824L200.333 43.3945C200.19 44.1074 199.62 44.6064 198.978 44.6777Z" fill="#F4A23F"/>
<path d="M203.084 35.0139L204.023 32.0955L195.81 29.4541L194.872 32.3725L203.084 35.0139Z" fill="#FBCF4C"/>
<path d="M200.832 34.2695L198.194 42.539C198.052 43.2519 197.481 43.7509 196.768 43.7509C196.554 43.7509 196.412 43.7509 196.198 43.6796L192.42 42.4677C192.634 42.6816 192.847 42.7529 193.061 42.8954L198.408 44.6064C198.551 44.6777 198.764 44.6777 198.978 44.6777C199.691 44.6064 200.261 44.1074 200.404 43.4658L203.113 35.0536L200.832 34.2695Z" fill="#E28539"/>
<path d="M201.759 31.4179L200.903 34.1269L194.915 32.2021L194.844 32.3447L203.113 34.9824L204.04 32.1308L201.759 31.4179Z" fill="#EDB248"/>
<path d="M200.974 48.6698C200.832 48.6698 200.618 48.6698 200.475 48.5986L189.069 44.8915C188.214 44.6064 187.715 43.6796 188 42.8241C188.214 42.1825 188.855 41.6835 189.497 41.6835L193.632 28.7802L195.77 29.4931L192.135 40.7568C191.707 42.1825 192.634 42.6816 193.061 42.8241L198.408 44.5351C198.551 44.6064 198.764 44.6064 198.978 44.6064C199.691 44.5351 200.261 44.0361 200.404 43.3945L204.04 32.0595L206.178 32.7724L201.972 45.6757C202.543 46.1034 202.757 46.8163 202.543 47.4579C202.329 48.1708 201.687 48.6698 200.974 48.6698Z" fill="white"/>
<path d="M199.976 44.1786L198.693 48.0282L200.475 48.5986C200.618 48.6698 200.832 48.6698 200.974 48.6698C201.687 48.6698 202.329 48.2421 202.543 47.5292C202.757 46.8876 202.543 46.1747 201.972 45.747L206.107 32.8437L203.969 32.1308L200.333 43.4658C200.261 43.6796 200.19 43.9648 199.976 44.1786Z" fill="#F7EEBA"/>
<path d="M205.109 32.3447C204.895 32.3447 204.681 32.3447 204.468 32.2734L195.556 29.4218C195.129 29.2792 194.701 28.9941 194.416 28.6376C194.202 28.2812 194.131 27.9247 194.202 27.497C194.416 26.9267 195.057 26.499 195.699 26.5702C195.913 26.5702 196.198 26.6415 196.412 26.7128H196.483C196.911 25.7148 197.909 25.1445 198.978 25.2158C199.406 25.2158 199.762 25.287 200.119 25.4296C201.046 25.7148 201.83 26.3564 202.258 27.2119C202.4 27.2119 202.543 27.1406 202.685 27.2119C202.97 27.2119 203.256 27.2831 203.541 27.3544C204.111 27.497 204.539 27.8535 204.895 28.3525C205.18 28.7089 205.252 29.2079 205.18 29.6357V29.707V29.6357L205.252 29.707C205.751 29.8495 206.178 30.206 206.392 30.6337C206.535 30.9189 206.606 31.204 206.464 31.4892C206.25 32.0595 205.679 32.3447 205.109 32.3447Z" fill="white"/>
<path d="M206.392 30.6337C206.107 30.206 205.751 29.8495 205.252 29.707L205.18 29.6357V29.5644C205.323 29.1367 205.18 28.6376 204.895 28.2812C204.539 27.8535 204.111 27.497 203.541 27.2831C203.256 27.2119 202.97 27.1406 202.685 27.1406C202.543 27.1406 202.4 27.1406 202.258 27.1406C201.83 26.2851 201.046 25.5722 200.119 25.3583C199.762 25.2158 199.335 25.1445 198.978 25.1445C198.551 25.1445 198.123 25.2158 197.695 25.4296C197.838 25.4296 197.909 25.5009 198.052 25.5009C198.978 25.7861 199.762 26.4277 200.19 27.2831C200.333 27.2831 200.475 27.2119 200.618 27.2831C200.903 27.2831 201.188 27.3544 201.473 27.4257C202.044 27.5683 202.471 27.9247 202.828 28.4238C203.113 28.7802 203.184 29.2792 203.113 29.707V29.7783V29.8495L203.184 29.9208C203.683 30.0634 204.111 30.4199 204.325 30.8476C204.468 31.1328 204.539 31.4179 204.396 31.7031C204.325 31.8456 204.254 32.0595 204.111 32.1308L204.468 32.2734C204.681 32.3447 204.895 32.3447 205.109 32.3447C205.679 32.416 206.25 32.0595 206.464 31.4892C206.535 31.204 206.535 30.9189 206.392 30.6337Z" fill="#F7EEBA"/>
<path d="M212.951 48.6699C212.238 48.6699 211.596 48.2421 211.383 47.5292C211.169 46.8876 211.383 46.1747 211.953 45.747L207.818 32.8437L209.957 32.1308L213.593 43.4658C213.735 44.1787 214.305 44.6777 215.018 44.6777C215.232 44.6777 215.375 44.6777 215.589 44.6064L220.935 42.8955C221.363 42.7529 222.29 42.2538 221.862 40.8281L219.082 32.4872L219.011 32.416V32.2021L218.084 29.4218L220.222 28.7089L224.428 41.6835C225.355 41.6835 226.068 42.4677 225.997 43.3945C225.997 44.1074 225.498 44.749 224.856 44.8915L213.45 48.5986C213.307 48.6699 213.094 48.6699 212.951 48.6699Z" fill="white"/>
<path d="M225.926 42.8242C225.712 42.1826 225.141 41.6835 224.428 41.6835L220.294 28.7802L218.155 29.4931L219.082 32.2734V32.3447V32.4872L219.153 32.5585L221.791 40.8281C221.862 41.0419 221.933 41.3271 221.933 41.541L223.145 45.4619L224.927 44.8915C225.783 44.6064 226.211 43.6796 225.926 42.8242Z" fill="#F7EEBA"/>
<path d="M210.846 35.0143L219.057 32.3713L218.118 29.4534L209.907 32.0964L210.846 35.0143Z" fill="#FBCF4C"/>
<path d="M216.016 30.206L216.943 33.0576L219.082 32.3447L218.155 29.4931L216.016 30.206Z" fill="#EDB248"/>
<path d="M208.816 32.3447C208.246 32.416 207.676 32.0595 207.462 31.4892C207.39 31.204 207.39 30.9189 207.533 30.6337C207.747 30.206 208.175 29.8496 208.674 29.707H208.745H208.816V29.6357C208.674 29.1367 208.745 28.6376 209.03 28.2812C209.387 27.8535 209.814 27.497 210.385 27.2832C210.67 27.2119 210.955 27.1406 211.24 27.1406C211.383 27.1406 211.525 27.1406 211.668 27.1406C212.096 26.2851 212.88 25.5722 213.806 25.3583C214.163 25.2158 214.591 25.1445 214.947 25.1445C215.945 25.0732 216.943 25.6435 217.371 26.5703H217.513C217.727 26.499 218.013 26.4277 218.226 26.4277C218.868 26.3564 219.51 26.7128 219.723 27.3544C219.866 27.7109 219.795 28.1386 219.51 28.4951C219.224 28.9228 218.797 29.208 218.369 29.2792L209.458 32.1308C209.244 32.2734 209.03 32.3447 208.816 32.3447Z" fill="white"/>
<path d="M219.723 27.4257C219.438 26.8554 218.868 26.4277 218.226 26.499C218.012 26.499 217.727 26.5703 217.513 26.6416H217.371C216.943 25.7148 215.945 25.1445 214.947 25.2158C214.519 25.2158 214.163 25.2871 213.806 25.4296C212.88 25.7148 212.095 26.3564 211.668 27.2119C211.525 27.2119 211.383 27.1406 211.24 27.2119C210.955 27.2119 210.67 27.2832 210.385 27.3544C209.814 27.497 209.386 27.8535 209.03 28.3525C208.887 28.5664 208.745 28.8515 208.745 29.0654C208.887 28.9941 208.959 28.9941 209.101 28.9228C209.386 28.8515 209.672 28.7802 209.957 28.7802C210.099 28.7802 210.242 28.7802 210.385 28.7802C210.812 27.9248 211.596 27.2119 212.523 26.998C212.88 26.8554 213.307 26.7841 213.664 26.7841C214.662 26.7128 215.66 27.2832 216.088 28.2099H216.23C216.444 28.1386 216.729 28.0673 216.943 28.0673C217.585 27.996 218.226 28.3525 218.44 28.9941C218.44 29.1367 218.511 29.208 218.511 29.3505C218.939 29.208 219.296 28.9228 219.51 28.5664C219.795 28.2099 219.866 27.8535 219.723 27.4257Z" fill="#F7EEBA"/>
<path d="M214.947 44.6777C214.234 44.6064 213.664 44.1074 213.521 43.4658L210.812 35.0537L219.082 32.3447L221.791 40.7568C222.29 42.1826 221.292 42.6816 220.864 42.8242L215.517 44.5351C215.303 44.6064 215.161 44.6777 214.947 44.6777Z" fill="#F4A23F"/>
<path d="M221.791 40.7568L219.082 32.3447L216.943 33.0576L219.652 41.4697C220.08 42.8242 219.296 43.3232 218.868 43.4658L220.864 42.8242C221.292 42.6816 222.219 42.2538 221.791 40.7568Z" fill="#E28539"/>
<path d="M226.139 31.4892C225.926 30.705 225.427 29.9921 224.714 29.5644C224.215 29.2792 223.573 29.2792 223.003 29.4931L221.434 29.9921L221.007 28.5664C220.935 28.3525 220.793 28.1386 220.508 28.1386C220.579 27.8535 220.508 27.5683 220.436 27.2119C220.009 26.1425 218.868 25.5722 217.799 25.8574C217.157 24.9306 216.088 24.4316 214.947 24.5029C214.448 24.5029 214.02 24.5742 213.521 24.7167C212.594 25.0019 211.739 25.6435 211.24 26.499C210.884 26.499 210.527 26.5703 210.171 26.6415C209.458 26.8554 208.887 27.2831 208.46 27.8535C208.175 28.2812 208.032 28.7802 208.032 29.2792C207.604 29.4931 207.248 29.8496 207.034 30.2773C206.82 29.8496 206.464 29.4931 205.965 29.2792C205.965 28.7802 205.822 28.2812 205.537 27.8535C205.109 27.2831 204.539 26.8554 203.826 26.6415C203.469 26.5703 203.113 26.499 202.757 26.499C202.186 25.6435 201.402 25.0732 200.475 24.788C200.048 24.6455 199.549 24.5742 199.05 24.5742C197.909 24.5029 196.911 25.0019 196.198 25.9287C196.055 25.9287 195.913 25.8574 195.699 25.9287C194.772 25.8574 193.845 26.4277 193.489 27.3544C193.418 27.6396 193.346 27.9247 193.418 28.2812C193.204 28.3525 192.99 28.4951 192.919 28.7089L192.491 30.1347L190.923 29.6357C190.352 29.4218 189.782 29.4931 189.212 29.707C188.499 30.1347 188 30.8476 187.786 31.6318L186.431 35.7665C186.289 36.123 186.218 36.622 186.289 37.121C186.289 38.0478 186.93 38.9033 187.857 39.1171L189.426 39.6162L188.927 41.0419C187.643 41.3984 186.93 42.6816 187.287 43.8935C187.501 44.6777 188.071 45.248 188.855 45.5331L200.261 49.2402C200.475 49.3115 200.761 49.3828 200.974 49.3828C202.258 49.3828 203.327 48.3134 203.327 47.0302C203.327 46.4599 203.113 45.9609 202.757 45.5331L206.749 33.0576C206.82 32.8437 206.749 32.6298 206.678 32.4872C206.749 32.416 206.82 32.2734 206.891 32.2021C206.963 32.2734 207.034 32.416 207.105 32.4872C206.963 32.6298 206.963 32.8437 207.034 33.0576L211.097 45.5331C210.242 46.5312 210.385 48.0283 211.383 48.8124C212.024 49.3115 212.88 49.5253 213.593 49.2402L224.999 45.5331C226.211 45.1767 226.924 43.8222 226.567 42.6103C226.353 41.8261 225.712 41.2558 224.928 41.0419L224.428 39.6162L225.997 39.1171C226.852 38.832 227.494 38.0478 227.565 37.121C227.565 36.622 227.494 36.123 227.351 35.624L226.139 31.4892ZM188.285 37.7626C187.928 37.6913 187.715 37.4062 187.715 37.0497C187.715 36.6933 187.715 36.4081 187.857 36.0517L189.14 31.9169C189.212 31.4892 189.497 31.1328 189.853 30.8476C190.067 30.7763 190.281 30.7763 190.495 30.8476L192.063 31.3466L189.853 38.2617L188.285 37.7626ZM201.26 45.5331C201.188 45.8183 201.26 46.1035 201.473 46.3173C201.759 46.5312 201.901 46.9589 201.83 47.3154C201.687 47.8144 201.117 48.0996 200.689 47.8857L189.283 44.1787C188.784 44.0361 188.499 43.5371 188.641 43.038C188.784 42.6816 189.069 42.3964 189.497 42.3964C189.782 42.3964 190.067 42.1826 190.138 41.8974L194.131 29.6357L194.915 29.9208L194.202 32.1308L191.493 40.5429C190.994 41.6122 191.493 42.8955 192.562 43.3945C192.705 43.4658 192.776 43.4658 192.919 43.5371L198.265 45.248C198.479 45.3193 198.764 45.3906 199.05 45.3906C200.048 45.3193 200.903 44.6777 201.117 43.6796L203.826 35.2675L204.539 33.0576L205.323 33.2714L201.26 45.5331ZM202.186 35.4814L199.691 43.1806C199.62 43.3945 199.406 43.8935 198.978 43.8935C198.836 43.8935 198.764 43.8935 198.622 43.8222L193.275 42.1113C192.776 41.9687 192.634 41.6122 192.847 40.9706L195.343 33.2001L202.186 35.4814ZM195.77 31.9169L196.269 30.3486L201.117 31.9169L203.113 32.5585L202.614 34.1269L195.77 31.9169ZM204.681 31.5605L195.77 28.7089C195.485 28.6376 195.2 28.4238 194.986 28.2099C194.844 28.0673 194.844 27.8535 194.844 27.7109C194.986 27.4257 195.343 27.2831 195.628 27.2831C195.77 27.2831 195.984 27.2831 196.127 27.3544H196.269C196.626 27.497 197.053 27.2831 197.196 26.9267C197.196 26.9267 197.196 26.9267 197.196 26.8554C197.481 26.2138 198.194 25.7861 198.978 25.8574C199.335 25.8574 199.62 25.9287 199.905 25.9999C200.618 26.2138 201.26 26.7128 201.545 27.4257C201.687 27.7109 201.972 27.9247 202.329 27.8535C202.614 27.7822 202.97 27.8535 203.256 27.9247C203.683 28.0673 203.969 28.2812 204.254 28.6376C204.396 28.8515 204.468 29.0654 204.468 29.3505L204.396 29.4218C204.254 29.7783 204.396 30.206 204.753 30.3486H204.824H204.895C205.466 30.4912 205.751 30.9189 205.679 31.204C205.608 31.4892 205.18 31.7031 204.681 31.5605ZM208.103 31.2753C208.032 30.9902 208.317 30.5624 208.887 30.4199H208.959C209.315 30.3486 209.6 29.9208 209.458 29.5644V29.4931V29.4218C209.386 29.208 209.458 28.9228 209.6 28.7089C209.814 28.3525 210.171 28.1386 210.598 27.996C210.884 27.9247 211.24 27.8535 211.525 27.9247C211.882 27.996 212.167 27.7822 212.309 27.497C212.666 26.7841 213.236 26.2851 213.949 26.0712C214.234 25.9999 214.591 25.9287 214.876 25.9287C215.589 25.8574 216.302 26.2138 216.658 26.8554C216.729 27.0693 216.872 27.2119 217.014 27.2831C217.228 27.3544 217.442 27.3544 217.585 27.2831L217.656 27.2119C218.226 26.998 218.868 27.2119 218.939 27.5683C219.011 27.7822 218.939 27.9247 218.797 28.0673C218.583 28.3525 218.369 28.4951 218.012 28.5664L209.101 31.4179C208.745 31.7031 208.246 31.5605 208.103 31.2753ZM218.583 33.2714L221.078 40.9706C221.292 41.6122 221.149 41.9687 220.65 42.1113L215.303 43.8935C215.232 43.8935 215.09 43.9648 214.947 43.9648C214.519 43.9648 214.305 43.4658 214.234 43.2519L211.739 35.4814L218.583 33.2714ZM211.311 34.1269L210.812 32.5585L212.808 31.9169L217.656 30.3486L218.155 31.9169L211.311 34.1269ZM225.213 43.038C225.355 43.5371 225.07 44.0361 224.642 44.2499L213.236 47.957C212.737 48.0996 212.238 47.8144 212.024 47.3867C211.882 47.0302 212.024 46.6025 212.381 46.3886C212.594 46.1747 212.737 45.8896 212.594 45.6044L208.674 33.3427L209.458 33.1288L210.171 35.3388L212.88 43.7509C213.094 44.749 213.949 45.4619 214.947 45.4619C215.232 45.4619 215.446 45.3906 215.731 45.3193L221.078 43.6083C222.219 43.3232 222.86 42.1113 222.575 40.9706C222.575 40.8281 222.504 40.7568 222.432 40.6142L219.723 32.2021L219.011 29.9921L219.795 29.707L223.716 41.9687C223.787 42.2539 224.072 42.4677 224.357 42.4677C224.785 42.4677 225.141 42.6816 225.213 43.038ZM226.211 36.9785C226.211 37.3349 225.926 37.6201 225.64 37.6914L224.072 38.2617L221.862 31.2753L223.43 30.7763C223.644 30.705 223.858 30.705 224.072 30.7763C224.428 31.0615 224.714 31.4179 224.785 31.8456L226.139 36.0517C226.211 36.3369 226.211 36.6933 226.211 36.9785Z" fill="#4A2328"/>
<path d="M206.82 25.3583C207.248 25.3583 207.533 25.0732 207.533 24.6454V19.1562C207.533 18.7285 207.248 18.4433 206.82 18.4433C206.392 18.4433 206.107 18.7285 206.107 19.1562V24.6454C206.107 25.0732 206.464 25.3583 206.82 25.3583Z" fill="#4A2328"/>
<path d="M208.887 25.8574C209.244 26.0712 209.672 25.9286 209.814 25.5722L212.666 20.0829C212.808 19.7265 212.666 19.2988 212.309 19.1562C211.953 19.0136 211.596 19.1562 211.454 19.4413L208.602 24.9306C208.46 25.2158 208.602 25.6435 208.887 25.8574Z" fill="#4A2328"/>
<path d="M203.755 25.5722C203.897 25.9287 204.325 26.0712 204.681 25.9287C205.038 25.7861 205.18 25.3583 205.038 25.0019C205.038 25.0019 205.038 24.9306 204.967 24.9306L202.115 19.4413C201.901 19.0849 201.473 19.0136 201.117 19.2275C200.832 19.4413 200.689 19.7978 200.832 20.0829L203.755 25.5722Z" fill="#4A2328"/>
</g>
<defs>
<clipPath id="clip0_9_26">
<rect width="41.3043" height="41.3043" fill="white" transform="translate(186.261 13.2609)"/>
</clipPath>
</defs>
</svg>
